<svg xmlns="http://www.w3.org/2000/svg" version="1.1" xmlns:xlink="http://www.w3.org/1999/xlink" xmlns:svgjs="http://svgjs.com/svgjs" width="1440" height="560" preserveAspectRatio="none" viewBox="0 0 1440 560"><g mask="url(&quot;#SvgjsMask1165&quot;)" fill="none"><rect width="1440" height="560" x="0" y="0" fill="url(#SvgjsLinearGradient1166)"></rect><path d="M-51.58 368.13 a132.53 132.53 0 1 0 265.06 0 a132.53 132.53 0 1 0 -265.06 0z" fill="rgba(28, 83, 142, 0.4)" class="triangle-float2"></path><path d="M160.76667583756233 236.5638160809892L221.7638044552784 135.0475464402287 120.24753481451793 74.05041782251263 59.25040619680185 175.56668746327313z" fill="rgba(28, 83, 142, 0.4)" class="triangle-float2"></path><path d="M456.23026838293885 582.1969992473306L448.655284952768 434.97326115491046 339.3699214515572 503.2623354190873z" fill="rgba(28, 83, 142, 0.4)" class="triangle-float3"></path><path d="M1155.02 268.85 a174.6 174.6 0 1 0 349.2 0 a174.6 174.6 0 1 0 -349.2 0z" fill="rgba(28, 83, 142, 0.4)" class="triangle-float3"></path><path d="M598.9692903261604 89.0617014607766L691.2235791011552 51.78854934990871 653.9504269902874-40.46573942508617 561.6961382152925-3.1925873142182866z" fill="rgba(28, 83, 142, 0.4)" class="triangle-float3"></path><path d="M1332.5755631764828 260.47967413655937L1371.1246699825754 306.42071066401803 1420.761671370717 225.62653219114992z" fill="rgba(28, 83, 142, 0.4)" class="triangle-float3"></path><path d="M492.65091057899394 444.60428508941226L405.7839599596672 492.7554220898058 453.9350969600607 579.6223727091326 540.8020475793875 531.4712357087391z" fill="rgba(28, 83, 142, 0.4)" class="triangle-float3"></path><path d="M1252.7760087831286 71.73852722851511L1327.9854932595633 144.3674821464349 1399.3241833982256-4.761222027177112z" fill="rgba(28, 83, 142, 0.4)" class="triangle-float1"></path><path d="M1351.169,510.415C1388.009,510.638,1411.833,474.438,1427.519,441.103C1440.667,413.162,1438.185,382.372,1424.43,354.725C1408.622,322.95,1386.627,289.133,1351.169,287.637C1314,286.069,1282.732,314.652,1266.36,348.058C1251.788,377.789,1261.071,410.842,1276.401,440.189C1293.368,472.671,1314.523,510.193,1351.169,510.415" fill="rgba(28, 83, 142, 0.4)" class="triangle-float1"></path><path d="M509.48502772697975 364.31035708321144L425.89455244652606 420.6928445867838 482.2770399500984 504.28331986723754 565.8675152305522 447.90083236366513z" fill="rgba(28, 83, 142, 0.4)" class="triangle-float1"></path><path d="M1351.2780048812729 427.68862341217107L1211.3754915704092 481.23924610310627 1311.688826824698 565.4121287171429z" fill="rgba(28, 83, 142, 0.4)" class="triangle-float2"></path><path d="M400.59,207.509C427.105,208.249,453.454,197.185,467.048,174.408C480.956,151.106,479.364,121.893,465.672,98.463C452.107,75.251,427.456,61.685,400.59,60.687C371.708,59.614,340.437,67.945,326.556,93.295C313.039,117.981,324.949,147.255,340.258,170.872C353.975,192.033,375.382,206.806,400.59,207.509" fill="rgba(28, 83, 142, 0.4)" class="triangle-float3"></path><path d="M87.87101572103576-32.38271331684509L-27.682821439323952 95.70712395177782 119.25302281515381 129.62993652631656z" fill="rgba(28, 83, 142, 0.4)" class="triangle-float1"></path><path d="M1057.8283496367071 73.35277615633407L1088.7672417815977 207.36384105900711 1222.7783066842708 176.4249489141165 1191.8394145393802 42.41388401144346z" fill="rgba(28, 83, 142, 0.4)" class="triangle-float3"></path><path d="M545.6096165766735 248.31165903256036L460.41608030348334 365.335807703875 586.0072611965969 380.75646570311324z" fill="rgba(28, 83, 142, 0.4)" class="triangle-float1"></path><path d="M76.353,689.633C116.084,687.444,150.185,662.856,168.977,627.782C186.724,594.66,182.225,556.458,165.82,522.651C146.492,482.821,120.517,440.008,76.353,436.911C28.341,433.544,-14.5,466.284,-37.851,508.37C-60.507,549.204,-60.704,599.554,-35.811,639.064C-12.379,676.255,32.463,692.051,76.353,689.633" fill="rgba(28, 83, 142, 0.4)" class="triangle-float1"></path><path d="M1353.9955916528838 210.3114588983865L1172.581165059788 181.40098075085962 1227.5047543686524 332.3023021723641z" fill="rgba(28, 83, 142, 0.4)" class="triangle-float1"></path><path d="M419.031,412.649C445.104,414.251,475.101,412.168,488.46,389.72C501.998,366.971,490.993,338.577,476.157,316.653C463.281,297.625,441.977,288.271,419.031,287.122C393.395,285.839,364.116,288.292,351.057,310.39C337.861,332.72,348.596,360.409,362.955,382.01C375.593,401.022,396.245,411.249,419.031,412.649" fill="rgba(28, 83, 142, 0.4)" class="triangle-float2"></path><path d="M863.2165788030655 559.4851356800581L922.3118625527475 426.7549552139682 730.4863983369756 500.3898519303762z" fill="rgba(28, 83, 142, 0.4)" class="triangle-float2"></path><path d="M186.63 553.87 a95.75 95.75 0 1 0 191.5 0 a95.75 95.75 0 1 0 -191.5 0z" fill="rgba(28, 83, 142, 0.4)" class="triangle-float2"></path></g><defs><mask id="SvgjsMask1165"><rect width="1440" height="560" fill="#ffffff"></rect></mask><linearGradient x1="15.28%" y1="139.29%" x2="84.72%" y2="-39.29%" gradientUnits="userSpaceOnUse" id="SvgjsLinearGradient1166"><stop stop-color="#0e2a47" offset="0"></stop><stop stop-color="rgba(0, 111, 255, 1)" offset="1"></stop></linearGradient><style>
            @keyframes float1 {
                0%{transform: translate(0, 0)}
                50%{transform: translate(-10px, 0)}
                100%{transform: translate(0, 0)}
            }

            .triangle-float1 {
                animation: float1 5s infinite;
            }

            @keyframes float2 {
                0%{transform: translate(0, 0)}
                50%{transform: translate(-5px, -5px)}
                100%{transform: translate(0, 0)}
            }

            .triangle-float2 {
                animation: float2 4s infinite;
            }

            @keyframes float3 {
                0%{transform: translate(0, 0)}
                50%{transform: translate(0, -10px)}
                100%{transform: translate(0, 0)}
            }

            .triangle-float3 {
                animation: float3 6s infinite;
            }
        </style></defs></svg>