<svg xmlns="http://www.w3.org/2000/svg" version="1.1" xmlns:xlink="http://www.w3.org/1999/xlink" xmlns:svgjs="http://svgjs.com/svgjs" preserveAspectRatio="none" viewBox="0 0 1440 560"><g mask="url(&quot;#SvgjsMask1015&quot;)" fill="none"><rect width="1440" height="560" x="0" y="0" fill="url(#SvgjsLinearGradient1016)"></rect><path d="M720 692.93C834.58 699.32 950.45 672.33 1036.98 596.98 1129.46 516.47 1201.58 402.4 1194.23 280 1187.16 162.02 1094.65 71.14 1001.15-1.15 920.57-63.43 821.73-82.07 720-86.52 611.78-91.25 496.35-96.24 413.18-26.82 324.31 47.37 276.33 164.33 280.92 280 285.34 391.96 354.91 486.69 436.54 563.46 515.22 637.44 612.19 686.91 720 692.93" fill="#1c538e"></path><path d="M720 547.19C794.14 551.33 869.12 533.86 925.11 485.11 984.95 433.01 1031.61 359.2 1026.86 280 1022.28 203.66 962.42 144.85 901.92 98.08 849.78 57.78 785.82 45.72 720 42.84 649.97 39.78 575.28 36.55 521.47 81.47 463.96 129.48 432.92 205.16 435.89 280 438.75 352.45 483.76 413.74 536.59 463.41 587.49 511.29 650.24 543.3 720 547.19" fill="#2774c6"></path><path d="M720 401.45C753.7 403.33 787.78 395.39 813.23 373.23 840.43 349.55 861.64 316 859.48 280 857.4 245.3 830.19 218.57 802.69 197.31 778.99 178.99 749.92 173.51 720 172.2 688.17 170.81 654.22 169.34 629.76 189.76 603.62 211.58 589.51 245.98 590.86 280 592.16 312.93 612.62 340.79 636.63 363.37 659.77 385.13 688.29 399.68 720 401.45" fill="#488fdb"></path></g><defs><mask id="SvgjsMask1015"><rect width="1440" height="560" fill="#ffffff"></rect></mask><linearGradient x1="15.28%" y1="-39.29%" x2="84.72%" y2="139.29%" gradientUnits="userSpaceOnUse" id="SvgjsLinearGradient1016"><stop stop-color="#0e2a47" offset="0"></stop><stop stop-color="#00459e" offset="1"></stop></linearGradient></defs></svg>