<svg id="visual" viewBox="0 0 900 600" width="900" height="600" xmlns="http://www.w3.org/2000/svg" xmlns:xlink="http://www.w3.org/1999/xlink" version="1.1"><rect x="0" y="0" width="900" height="600" fill="#001220"></rect><defs><linearGradient id="grad1_0" x1="33.3%" y1="0%" x2="100%" y2="100%"><stop offset="20%" stop-color="#001220" stop-opacity="1"></stop><stop offset="80%" stop-color="#001220" stop-opacity="1"></stop></linearGradient></defs><defs><linearGradient id="grad2_0" x1="0%" y1="0%" x2="66.7%" y2="100%"><stop offset="20%" stop-color="#001220" stop-opacity="1"></stop><stop offset="80%" stop-color="#001220" stop-opacity="1"></stop></linearGradient></defs><g transform="translate(900, 0)"><path d="M0 486.7C-70.7 487.4 -141.5 488 -186.3 449.7C-231.1 411.4 -249.9 334.1 -283.5 283.5C-317.2 233 -365.6 209.3 -401.9 166.5C-438.2 123.7 -462.5 61.8 -486.7 0L0 0Z" fill="#0066FF"></path></g><g transform="translate(0, 600)"><path d="M0 -486.7C57.9 -455.6 115.7 -424.5 162.6 -392.6C209.5 -360.8 245.5 -328.3 297 -297C348.5 -265.7 415.5 -235.6 449.7 -186.3C483.9 -137 485.3 -68.5 486.7 0L0 0Z" fill="#0066FF"></path></g></svg>