<svg xmlns="http://www.w3.org/2000/svg" version="1.1" xmlns:xlink="http://www.w3.org/1999/xlink" xmlns:svgjs="http://svgjs.com/svgjs" width="1440" height="560" preserveAspectRatio="none" viewBox="0 0 1440 560"><g mask="url(&quot;#SvgjsMask1095&quot;)" fill="none"><rect width="1440" height="560" x="0" y="0" fill="rgba(38, 172, 226, 1)"></rect><path d="M0,533.196C102.39,537.066,205.192,508.717,289.642,450.692C372.689,393.631,444.039,311.193,466.171,212.893C486.946,120.62,416.3,35.691,404.201,-58.115C391.842,-153.937,453.631,-265.438,394.608,-341.93C335.936,-417.967,217.49,-400.526,123.775,-421.54C36.791,-441.045,-50.421,-488.03,-135.289,-460.751C-219.661,-433.632,-276.865,-355.104,-321.362,-278.462C-360.752,-210.617,-362.223,-131.32,-371.76,-53.451C-381.084,22.685,-391.463,96.717,-376.524,171.953C-358.214,264.168,-343.744,364.225,-275.903,429.313C-203.525,498.753,-100.23,529.407,0,533.196" fill="#147297"></path><path d="M1440 1105.365C1542.823 1103.243 1640.693 1062.233 1724.074 1002.028 1804.557 943.9159999999999 1860.945 861.37 1902.672 771.295 1944.577 680.836 1958.551 584.26 1963.7240000000002 484.7 1970.001 363.895 1999.4479999999999 233.212 1935.98 130.231 1870.133 23.38900000000001 1743.4940000000001-28.270999999999958 1623.975-66.56299999999999 1502.314-105.54100000000005 1374.073-116.77099999999996 1249.201-89.79999999999995 1117.9189999999999-61.44500000000005 972.662-21.312000000000012 897.894 90.262 824.275 200.122 882.626 346.352 868.794 477.873 855.653 602.831 760.56 732.3489999999999 818.651 843.761 877.002 955.672 1031.968 964.937 1148.289 1013.9110000000001 1244.149 1054.271 1336.012 1107.511 1440 1105.365" fill="#78cbed"></path></g><defs><mask id="SvgjsMask1095"><rect width="1440" height="560" fill="#ffffff"></rect></mask></defs></svg>